<?xml version="1.0" encoding="utf-8"?>
<svg version="1.1" xmlns="http://www.w3.org/2000/svg" viewBox="0 0 208 208" xml:space="preserve">
<style type="text/css">
	.st0{fill:url(#SVGID_1_);}
	.st1{fill:#513535;}
	.st2{fill:#3A2222;}
</style>
<linearGradient id="SVGID_1_" gradientUnits="userSpaceOnUse" x1="87.0088" y1="194.6197" x2="123.0088" y2="2.6197">
	<stop offset="0" style="stop-color:#590006"/>
	<stop offset="1" style="stop-color:#FF3F45"/>
</linearGradient>
<path class="st0" d="M173.1,208H34.9C15.6,208,0,192.4,0,173.1V34.9C0,15.6,15.6,0,34.9,0h138.2C192.4,0,208,15.6,208,34.9v138.2C208,192.4,192.4,208,173.1,208z"/>
<path class="st1" d="M92.4,84.2h41.3L130,64c-0.5-2.5-3-4.4-6-4.4h-21.9c-3,0-5.5,1.9-6,4.4L92.4,84.2z"/>
<path class="st1" d="M40.1,148.4H46c1.3,0,2.6-0.5,3.5-1.4l17.9-18.3V80.5L49.6,62.2c-0.9-0.9-2.1-1.4-3.5-1.4h-6c-2.5,0-4.5,1.8-4.5,3.9v79.7C35.6,146.6,37.6,148.4,40.1,148.4z"/>
<path class="st2" d="M46.1,60.8h-6c-2.5,0-4.5,1.8-4.5,3.9v39.8h31.7V80.5L49.6,62.2C48.7,61.3,47.4,60.8,46.1,60.8z"/>
<path d="M42.1,125.9l98.9,11.7c21,2.5,40.3-10.3,43.2-28.5c0.2-1.5,0.4-3,0.4-4.5c0-18.4-17.2-33.3-38.4-33.3c-1.7,0-3.5,0.1-5.2,0.3L42.1,83.3c-7.5,0.9-13.1,6.4-13.1,13v16.6C29.1,119.5,34.6,125,42.1,125.9L42.1,125.9z"/>
</svg>
